<?xml version="1.0" encoding="UTF-8"?>
<!-- Generator: Adobe Illustrator 24.0.2, SVG Export Plug-In . SVG Version: 6.00 Build 0)  -->
<svg version="1.1" id="Ebene_1" xmlns="http://www.w3.org/2000/svg" xmlns:xlink="http://www.w3.org/1999/xlink" x="0px" y="0px" viewBox="0 0 448.9 155" style="enable-background:new 0 0 448.9 155;" xml:space="preserve">
<style type="text/css">
	.st0{fill:#811C62;}
</style>
<path class="st0" d="M84.7,2.6c0-0.5,0.3-0.7,0.9-0.7h15c9.4,0,15.9,5.7,15.9,13.5v16.7c0,7.8-7.4,14-15.9,14h-15  c-0.5,0-0.9-0.3-0.9-0.7C84.7,45.4,84.7,2.6,84.7,2.6z M99.8,38.5c4.2,0,7.2-2.6,7.2-7.5V16.5c0-4.5-3.1-7-7.2-7H94v29H99.8z"/>
<path class="st0" d="M122,1.6c0-0.5,0.3-0.7,0.9-0.7h25.5c0.5,0,0.7,0.2,0.7,0.7v6.2c0,0.5-0.2,0.7-0.7,0.7h-17.1v10.9h14.8  c0.5,0,0.7,0.2,0.7,0.7v6.3c0,0.5-0.2,0.7-0.7,0.7h-14.8v11.4h17.6c0.5,0,0.7,0.2,0.7,0.7v6.2c0,0.5-0.2,0.7-0.7,0.7h-26  c-0.5,0-0.9-0.3-0.9-0.7L122,1.6L122,1.6z"/>
<path class="st0" d="M154.1,1.6c0-0.5,0.3-0.7,0.9-0.7h7.4c0.6,0,0.9,0.2,0.9,0.7v31.5c0,4,2.2,6.2,6.7,6.2c4.2,0,6.8-2.2,6.8-6.2  V1.6c0-0.5,0.3-0.7,0.9-0.7h7.4c0.6,0,0.9,0.2,0.9,0.7V34c0,7.8-6.1,13.2-15.9,13.2c-10.1,0-15.8-5.3-15.8-13.2V1.6H154.1z"/>
<path class="st0" d="M189,1.6c0-0.5,0.2-0.7,0.7-0.7h28.1c0.5,0,0.7,0.2,0.7,0.7v6.3c0,0.5-0.2,0.7-0.7,0.7h-9.5v36.9  c0,0.5-0.1,0.7-0.6,0.7h-8.1c-0.5,0-0.6-0.2-0.6-0.7V8.6h-9.3c-0.5,0-0.7-0.2-0.7-0.7L189,1.6L189,1.6z"/>
<path class="st0" d="M220.1,39l6.4-3.8c0.7-0.4,1.4-0.2,1.8,0.4c1.7,2.6,4.5,3.8,7.5,3.8c5,0,7.6-2,7.6-5.2c0-2.4-1.4-4-4.6-5.2  l-9.9-3.7c-4.8-1.9-8.4-7.2-8.4-12.8c0-7.3,6.6-12.5,15.2-12.5c7.7,0,12.5,2.7,15.5,7.8c0.4,0.6,0.1,1-0.3,1.2l-6.2,3.2  c-0.6,0.3-1.2,0.1-1.5-0.4c-1.3-2.6-3.6-4.2-7.1-4.2c-3.7,0-6.1,1.7-6.1,4.8c0,2.2,1.3,4,5.1,5.5l7.6,2.8c6.6,2.4,9.6,6.6,9.6,13  c0,7.8-6.3,13.7-16.3,13.7c-7.8,0-12.8-2.2-16-6.7C219.5,39.8,219.6,39.3,220.1,39z"/>
<path class="st0" d="M255.7,13c0-7.9,6.8-13,16.2-13c7.3,0,12.5,3.2,14.8,8.5c0.3,0.6,0.1,1-0.3,1.2l-6.6,3c-0.4,0.2-1,0-1.2-0.5  c-1.1-3-3.3-4.5-6.7-4.5c-4.8,0-6.8,1.9-6.8,6.2v18.6c0,4.2,2.5,6.7,7.1,6.7c3.2,0,5.5-1.7,6.6-4.5c0.2-0.6,0.8-0.8,1.4-0.5l5.8,2.4  c0.8,0.4,1.1,1.1,0.7,1.9c-2.1,5-7.6,8.6-15,8.6c-9.6,0-15.9-6-15.9-14.3L255.7,13L255.7,13z"/>
<path class="st0" d="M290.9,1.6c0-0.5,0.3-0.7,0.9-0.7h7.6c0.6,0,0.9,0.2,0.9,0.7v18.5h14.3V1.6c0-0.5,0.3-0.7,0.9-0.7h7.6  c0.6,0,0.9,0.2,0.9,0.7v43.8c0,0.4-0.3,0.7-0.9,0.7h-7.8c-0.5,0-0.9-0.3-0.9-0.7V27.8h-14.3v17.7c0,0.4-0.3,0.7-0.9,0.7h-7.6  c-0.5,0-0.9-0.3-0.9-0.7V1.6H290.9z"/>
<path class="st0" d="M330.4,1.6c0-0.5,0.3-0.7,0.9-0.7h25.5c0.5,0,0.7,0.2,0.7,0.7v6.2c0,0.5-0.2,0.7-0.7,0.7h-17.1v10.9h14.8  c0.5,0,0.7,0.2,0.7,0.7v6.3c0,0.5-0.2,0.7-0.7,0.7h-14.8v11.4h17.6c0.5,0,0.7,0.2,0.7,0.7v6.2c0,0.5-0.2,0.7-0.7,0.7h-26  c-0.5,0-0.9-0.3-0.9-0.7V1.6z"/>
<path class="st0" d="M55.7,55h8.4c0.6,0,1,0.2,1.1,0.8l5.7,32.4l5.5-32.4c0.1-0.6,0.6-0.9,1-0.9h9.2c0.6,0,1,0.3,1.2,1l6.8,32.3  l4.6-32.5c0.1-0.6,0.5-0.8,1.2-0.8h8.4c0.5,0,0.6,0.4,0.5,0.9l-9,43.9c-0.1,0.4-0.4,0.4-0.9,0.4h-9.6c-0.4,0-0.9-0.1-1-0.5L81.9,68  l-6.2,31.7c-0.1,0.4-0.4,0.5-0.8,0.5h-9.1c-0.4,0-0.9-0.1-0.9-0.4l-9.8-44.2C54.9,55.2,55.4,55,55.7,55z"/>
<path class="st0" d="M112.5,66.2c0-7.6,5.9-12.2,16-12.2c9.7,0,16,4.7,16,12.2V88c0,7.7-6.3,13.2-16,13.2c-9.9,0-16-5.5-16-13.2  V66.2z M128.5,93.3c4.6,0,6.8-2.2,6.8-6.2V67.9c0-4-2.3-6.2-6.8-6.2c-5,0-6.7,2.2-6.7,6.2v19.3C121.8,91.2,123.5,93.3,128.5,93.3z"/>
<path class="st0" d="M150.5,55.6c0-0.5,0.3-0.7,0.9-0.7h7.6c0.6,0,0.9,0.2,0.9,0.7v18.5h14.3V55.6c0-0.5,0.3-0.7,0.9-0.7h7.6  c0.6,0,0.9,0.2,0.9,0.7v43.8c0,0.4-0.3,0.7-0.9,0.7h-7.6c-0.5,0-0.9-0.3-0.9-0.7V81.7h-14.3v17.7c0,0.4-0.3,0.7-0.9,0.7h-7.6  c-0.5,0-0.9-0.3-0.9-0.7V55.6z"/>
<path class="st0" d="M190,55.6c0-0.5,0.3-0.7,0.9-0.7h7.9c0.6,0,1.1,0.3,1.3,0.7l15.1,29.8l-0.6-29.8c0-0.5,0.3-0.7,0.9-0.7h7.6  c0.6,0,0.9,0.2,0.9,0.7v43.8c0,0.4-0.3,0.7-0.9,0.7H215c-0.5,0-0.9-0.2-1.2-0.7l-14.5-28.1l0.1,28.1c0,0.4-0.3,0.7-0.9,0.7h-7.6  c-0.5,0-0.9-0.3-0.9-0.7L190,55.6L190,55.6z"/>
<path class="st0" d="M230.5,55.6c0-0.5,0.3-0.7,0.9-0.7h25.5c0.5,0,0.7,0.2,0.7,0.7v6.2c0,0.5-0.2,0.7-0.7,0.7h-17.1v10.9h14.8  c0.5,0,0.7,0.2,0.7,0.7v6.3c0,0.5-0.2,0.7-0.7,0.7h-14.8v11.4h17.5c0.5,0,0.7,0.2,0.7,0.7v6.2c0,0.5-0.2,0.7-0.7,0.7h-26  c-0.5,0-0.9-0.3-0.9-0.7L230.5,55.6L230.5,55.6z"/>
<path class="st0" d="M263.5,55.6c0-0.5,0.3-0.7,0.9-0.7h7.9c0.6,0,1.1,0.3,1.3,0.7l15.1,29.8l-0.6-29.8c0-0.5,0.3-0.7,0.9-0.7h7.6  c0.6,0,0.9,0.2,0.9,0.7v43.8c0,0.4-0.3,0.7-0.9,0.7h-8.1c-0.5,0-0.9-0.2-1.2-0.7l-14.5-28.1l0.1,28.1c0,0.4-0.3,0.7-0.9,0.7h-7.6  c-0.5,0-0.9-0.3-0.9-0.7L263.5,55.6L263.5,55.6z"/>
<path class="st0" d="M117.1,109.6c0-0.5,0.3-0.7,0.9-0.7h25.5c0.5,0,0.7,0.2,0.7,0.7v6.2c0,0.5-0.2,0.7-0.7,0.7h-17.2v10.9h14.8  c0.5,0,0.7,0.2,0.7,0.7v6.3c0,0.5-0.2,0.7-0.7,0.7h-14.8v11.4h17.6c0.5,0,0.7,0.2,0.7,0.7v6.2c0,0.5-0.2,0.7-0.7,0.7h-26  c-0.5,0-0.9-0.3-0.9-0.7L117.1,109.6L117.1,109.6z"/>
<path class="st0" d="M150.1,109.6c0-0.5,0.3-0.7,0.9-0.7h7.9c0.6,0,1.1,0.3,1.3,0.7l15.1,29.8l-0.6-29.8c0-0.5,0.3-0.7,0.9-0.7h7.6  c0.6,0,0.9,0.2,0.9,0.7v43.8c0,0.4-0.3,0.7-0.9,0.7h-8.1c-0.5,0-0.9-0.2-1.2-0.7l-14.6-28l0.1,28.1c0,0.4-0.3,0.7-0.9,0.7h-7.6  c-0.5,0-0.9-0.3-0.9-0.7L150.1,109.6L150.1,109.6z"/>
<path class="st0" d="M187.5,109.6c0-0.5,0.2-0.7,0.7-0.7h28.1c0.5,0,0.7,0.2,0.7,0.7v6.3c0,0.5-0.2,0.7-0.7,0.7h-9.5v36.9  c0,0.5-0.1,0.7-0.6,0.7h-8.1c-0.5,0-0.6-0.2-0.6-0.7v-36.9h-9.3c-0.5,0-0.7-0.2-0.7-0.7L187.5,109.6L187.5,109.6z"/>
<path class="st0" d="M220.6,109.6c0-0.5,0.3-0.7,0.9-0.7H247c0.5,0,0.7,0.2,0.7,0.7v6.2c0,0.5-0.2,0.7-0.7,0.7h-17.1v10.9h14.8  c0.5,0,0.7,0.2,0.7,0.7v6.3c0,0.5-0.2,0.7-0.7,0.7h-14.8v11.4h17.6c0.5,0,0.7,0.2,0.7,0.7v6.2c0,0.5-0.2,0.7-0.7,0.7h-26  c-0.5,0-0.9-0.3-0.9-0.7V109.6L220.6,109.6z"/>
<path class="st0" d="M253.7,109.6c0-0.5,0.3-0.7,0.9-0.7h7.6c0.6,0,0.9,0.2,0.9,0.7v43.8c0,0.4-0.3,0.7-0.9,0.7h-7.6  c-0.5,0-0.9-0.3-0.9-0.7L253.7,109.6L253.7,109.6z"/>
<path class="st0" d="M268.1,120.7c0-8.6,6.8-12.7,16.2-12.7c8.1,0,12.2,3,14.8,8.5c0.2,0.5,0.1,1-0.3,1.2l-6.6,3  c-0.4,0.2-1,0.1-1.2-0.5c-1.2-3-3.3-4.5-6.7-4.5c-4.2,0-6.8,1.8-6.8,6.2v18.9c0,3.9,2.5,6.4,6.6,6.4c3.8,0,6.7-2.1,6.8-5l0.1-6.8  l-7.3-0.1c-0.5,0-0.7-0.2-0.7-0.7v-5.3c0-0.5,0.2-0.7,0.7-0.7H299c0.6,0,0.9,0.3,0.9,0.7v24c0,0.4-0.3,0.6-0.8,0.6h-6  c-0.5,0-0.9-0.3-1.1-0.8l-0.7-1.6c-1.9,2.4-4.8,3.5-9.5,3.5c-7.2,0-13.5-5-13.5-13.2v-21.1L268.1,120.7L268.1,120.7z"/>
<path class="st0" d="M304.9,109.6c0-0.5,0.3-0.7,0.9-0.7h7.9c0.6,0,1.1,0.3,1.3,0.7l15.1,29.8l-0.6-29.8c0-0.5,0.3-0.7,0.9-0.7h7.6  c0.6,0,0.9,0.2,0.9,0.7v43.8c0,0.4-0.3,0.7-0.9,0.7h-8.1c-0.5,0-0.9-0.2-1.2-0.7l-14.5-28.1l0.1,28.1c0,0.4-0.3,0.7-0.9,0.7h-7.6  c-0.5,0-0.9-0.3-0.9-0.7L304.9,109.6L304.9,109.6z"/>
<path class="st0" d="M345.4,109.6c0-0.5,0.3-0.7,0.9-0.7h25.5c0.5,0,0.7,0.2,0.7,0.7v6.2c0,0.5-0.2,0.7-0.7,0.7h-17.1v10.9h14.8  c0.5,0,0.7,0.2,0.7,0.7v6.3c0,0.5-0.2,0.7-0.7,0.7h-14.8v11.4h17.6c0.5,0,0.7,0.2,0.7,0.7v6.2c0,0.5-0.2,0.7-0.7,0.7h-26  c-0.5,0-0.9-0.3-0.9-0.7V109.6z"/>
<path class="st0" d="M378.4,109.6c0-0.5,0.3-0.7,0.9-0.7h7.9c0.6,0,1.1,0.3,1.3,0.7l15.1,29.8l-0.6-29.8c0-0.5,0.3-0.7,0.9-0.7h7.6  c0.6,0,0.9,0.2,0.9,0.7v43.8c0,0.4-0.3,0.7-0.9,0.7h-8.2c-0.5,0-0.9-0.2-1.2-0.7l-14.5-28.1l0.1,28.1c0,0.4-0.3,0.7-0.9,0.7h-7.5  c-0.5,0-0.9-0.3-0.9-0.7L378.4,109.6L378.4,109.6z"/>
<g>
	<path class="st0" d="M64.7,2.6c0-0.5,0.3-0.7,0.8-0.7h7.3c0.6,0,0.8,0.2,0.8,0.7v42.9c0,0.4-0.3,0.7-0.8,0.7h-7.3   c-0.5,0-0.8-0.3-0.8-0.7V2.6z"/>
	<path class="st0" d="M44.9,2.6c0-0.5,0.3-0.7,0.8-0.7H53c0.6,0,0.8,0.2,0.8,0.7v42.9c0,0.4-0.3,0.7-0.8,0.7h-7.3   c-0.5,0-0.8-0.3-0.8-0.7V2.6z"/>
</g>
<path class="st0" d="M32.3,2.1c0.1-0.5,0.4-0.6,1-0.5L40.5,3c0.5,0.1,0.8,0.4,0.7,0.8L33,45.7c-0.1,0.4-0.4,0.6-1,0.5l-7.2-1.4  c-0.5-0.1-0.8-0.4-0.7-0.8L32.3,2.1z"/>
<path class="st0" d="M20.6,3.9c0.2-0.4,0.6-0.5,1.1-0.2l6.4,3.5c0.5,0.3,0.6,0.6,0.4,1L8,45.6c-0.2,0.4-0.6,0.5-1.1,0.2l-6.4-3.5  c-0.4-0.2-0.6-0.6-0.4-1L20.6,3.9z"/>
<g>
	<path class="st0" d="M329.1,77.3c-3.7-2-6.2-5.5-6.2-10.6c0-6.6,5.1-12.5,13.7-12.5c5.4,0,9.9,1.8,13,5.4c0.4,0.4,0.4,1.1-0.1,1.5   l-4.3,3.3c-0.6,0.4-1.2,0.4-1.6-0.1c-1.7-2-3.5-3-6.1-3c-3.7,0-5.6,2.7-5.6,5.5c0,4.2,3.2,6.7,7.6,6.7h8.4v-6.1   c0-0.8,0.5-0.7,1.1-0.7h6.9c0.8,0,1.1,0.4,1.1,0.7v6.1h3.2c0.6,0,0.8,0.1,0.8,0.7V80c0,0.5-0.1,0.6-0.7,0.6H357l-0.1,18.5   c0,0.5-0.2,0.7-0.7,0.7l-19.7,0.1c-9.1,0.1-14.4-5.3-14.4-12.6C322.2,82.7,325,79,329.1,77.3z M338.3,92.5l9.6,0.1V80.7h-9.4   c-4.6,0-6.9,2.1-6.9,5.9S334,92.5,338.3,92.5z"/>
	<path class="st0" d="M380.9,66.8c0-7.8,6.6-12.8,15.9-12.8c7.1,0,12.2,3.1,14.5,8.3c0.3,0.6,0.1,1-0.3,1.2l-6.5,3   c-0.4,0.2-1,0-1.2-0.5c-1.1-3-3.2-4.4-6.6-4.4c-4.7,0-6.7,1.9-6.7,6.1v18.2c0,4.1,2.5,6.6,7,6.6c3.2,0,5.4-1.6,6.4-4.4   c0.2-0.6,0.8-0.8,1.4-0.5l5.6,2.4c0.8,0.4,1.1,1.1,0.7,1.9c-2,4.9-7.5,8.5-14.7,8.5c-9.4,0-15.6-5.8-15.6-14V66.8H380.9z"/>
	<path class="st0" d="M417.6,66c0-7.4,5.8-12,15.6-12c9.5,0,15.6,4.6,15.6,12v21.4c0,7.5-6.1,12.9-15.6,12.9   c-9.7,0-15.6-5.4-15.6-12.9V66z M433.3,92.6c4.5,0,6.6-2.1,6.6-6.1V67.6c0-3.9-2.3-6.1-6.6-6.1c-4.9,0-6.6,2.1-6.6,6.1v18.9   C426.7,90.4,428.4,92.6,433.3,92.6z"/>
</g>
</svg>