<svg id="Capa_1" enable-background="new 0 0 512 512" height="512" viewBox="0 0 512 512" width="512" xmlns="http://www.w3.org/2000/svg"><g><g><path d="m346 30c-11.05 0-20 8.95-20 20v-20c0-11.05-8.95-20-20-20s-20 8.95-20 20c0-11.05-8.95-20-20-20s-20 8.95-20 20c0-11.05-8.95-20-20-20s-20 8.95-20 20v25.35c-11.96 6.92-20 19.85-20 34.65v30c0 31.2 15.88 58.7 40 74.84v307.16h100v-307.16c24.12-16.14 40-43.64 40-74.84 0-12.285 0-51.529 0-70 0-11.05-8.95-20-20-20z" fill="#d0a084"/><path d="m446 296c-11.05 0-20 8.95-20 20v-20c0-11.05-8.95-20-20-20s-20 8.95-20 20c0-11.05-8.95-20-20-20s-20 8.95-20 20c0-11.05-8.95-20-20-20s-20 8.95-20 20v25.35c-11.96 6.92-20 19.85-20 34.65v30c0 31.2 15.88 58.7 40 74.84v41.16h100v-41.16c24.12-16.14 40-43.64 40-74.84 0-12.285 0-51.529 0-70 0-11.05-8.95-20-20-20z" fill="#fce8d0"/><path d="m206 236c-11.05 0-20 8.95-20 20v-20c0-11.05-8.95-20-20-20s-20 8.95-20 20c0-11.05-8.95-20-20-20s-20 8.95-20 20c0-11.05-8.95-20-20-20s-20 8.95-20 20v25.35c-11.96 6.92-20 19.85-20 34.65v30c0 31.2 15.88 58.7 40 74.84v101.16h100v-101.16c24.12-16.14 40-43.64 40-74.84 0-12.285 0-51.529 0-70 0-11.05-8.95-20-20-20z" fill="#ffda8f"/></g><g><path d="m446 286c-3.904 0-7.633.758-11.057 2.121-3.47-12.731-15.128-22.121-28.943-22.121-7.678 0-14.688 2.902-20 7.663-5.312-4.761-12.322-7.663-20-7.663s-14.688 2.902-20 7.663c-2.886-2.587-6.275-4.622-10-5.943v-67.716c25.145-18.86 40-48.376 40-80.004 0-12.285 0-51.529 0-70 0-16.542-13.458-30-30-30-3.904 0-7.633.758-11.057 2.121-3.47-12.731-15.128-22.121-28.943-22.121-7.678 0-14.688 2.902-20 7.663-5.312-4.761-12.322-7.663-20-7.663s-14.688 2.902-20 7.663c-5.312-4.761-12.322-7.663-20-7.663-16.542 0-30 13.458-30 30v20.02c-12.457 9.377-20 24.201-20 39.98v30c0 31.628 14.855 61.144 40 80.004v27.716c-3.13-1.11-6.494-1.72-10-1.72-3.904 0-7.633.758-11.057 2.121-3.47-12.731-15.128-22.121-28.943-22.121-7.678 0-14.688 2.902-20 7.663-5.312-4.761-12.322-7.663-20-7.663s-14.688 2.902-20 7.663c-5.312-4.761-12.322-7.663-20-7.663-16.542 0-30 13.458-30 30v20.008c-10.741 8.092-17.94 20.333-19.613 33.756-.684 5.48 3.205 10.477 8.686 11.161 5.471.68 10.477-3.206 11.16-8.686 1.83-14.683 14.392-26.239 29.767-26.249h48.286c-4.127 11.651-15.249 20.01-28.286 20.01h-20c-5.522 0-10 4.477-10 10s4.478 10 10 10c27.57 0 50 22.43 50 50 0 5.523 4.478 10 10 10s10-4.477 10-10c0-22.554-10.733-42.638-27.347-55.448 4.415-2.254 8.451-5.143 11.99-8.549 5.322 8.402 14.696 13.997 25.357 13.997 7.678 0 14.688-2.902 20-7.663 5.312 4.761 12.322 7.663 20 7.663 3.506 0 6.87-.61 10-1.72v21.72c0 26.758-13.294 51.629-35.562 66.529-2.773 1.856-4.438 4.974-4.438 8.311v91.16h-80v-91.16c0-3.337-1.665-6.455-4.438-8.311-8.198-5.486-15.244-12.355-20.941-20.415-3.188-4.51-9.428-5.583-13.938-2.394-4.511 3.188-5.582 9.428-2.395 13.938 6.063 8.579 13.352 16.077 21.712 22.347v95.995c0 5.522 4.478 10 10 10h100c5.522 0 10-4.478 10-10v-95.996c7.669-5.752 14.375-12.5 20-19.993v115.989c0 5.522 4.478 10 10 10h200c5.522 0 10-4.478 10-10v-35.996c25.145-18.86 40-48.376 40-80.004 0-12.285 0-51.529 0-70 0-16.542-13.458-30-30-30zm0 20c5.514 0 10 4.486 10 10v20c0 5.514-4.486 10-10 10s-10-4.486-10-10v-20c0-5.514 4.486-10 10-10zm-40-20c5.514 0 10 4.486 10 10v40c0 5.514-4.486 10-10 10s-10-4.486-10-10v-40c0-5.514 4.486-10 10-10zm-40 0c5.514 0 10 4.486 10 10v10h-20v-10c0-5.514 4.486-10 10-10zm-40 20c-3.37 0-6.72.348-10 1.017v-11.017c0-5.514 4.486-10 10-10s10 4.486 10 10v10zm20-266c5.514 0 10 4.486 10 10v20c0 5.514-4.486 10-10 10s-10-4.486-10-10v-20c0-5.514 4.486-10 10-10zm-40-20c5.514 0 10 4.486 10 10v40c0 5.514-4.486 10-10 10s-10-4.486-10-10v-40c0-5.514 4.486-10 10-10zm-40 0c5.514 0 10 4.486 10 10v10h-20v-10c0-5.514 4.486-10 10-10zm-40 0c5.514 0 10 4.486 10 10v10h-10c-3.37 0-6.72.348-10 1.017v-11.017c0-5.514 4.486-10 10-10zm-150 227.017v-11.017c0-5.514 4.486-10 10-10s10 4.486 10 10v10h-10c-3.37 0-6.72.348-10 1.017zm40-1.017v-10c0-5.514 4.486-10 10-10s10 4.486 10 10v10zm50 40c-5.514 0-10-4.486-10-10v-40c0-5.514 4.486-10 10-10s10 4.486 10 10v40c0 5.514-4.486 10-10 10zm40 0c-5.514 0-10-4.486-10-10v-20c0-5.514 4.486-10 10-10s10 4.486 10 10v20c0 5.514-4.486 10-10 10zm30-91.16c0-3.337-1.665-6.455-4.438-8.311-22.268-14.9-35.562-39.771-35.562-66.529v-30c0-16.163 13.051-29.978 30-30.01h48.286c-4.127 11.651-15.249 20.01-28.286 20.01h-20c-5.522 0-10 4.477-10 10s4.478 10 10 10c27.57 0 50 22.43 50 50 0 5.523 4.478 10 10 10s10-4.477 10-10c0-22.554-10.733-42.638-27.347-55.448 4.415-2.254 8.451-5.143 11.99-8.549 5.322 8.402 14.696 13.997 25.357 13.997 7.678 0 14.688-2.902 20-7.663 5.312 4.761 12.322 7.663 20 7.663 3.506 0 6.87-.61 10-1.72v21.72c0 26.758-13.294 51.629-35.562 66.529-2.773 1.856-4.438 4.974-4.438 8.311v72.88c-11.639 4.128-20 15.243-20 28.28v20.02c-12.457 9.377-20 24.201-20 39.98v30c0 31.628 14.855 61.144 40 80.004v25.996h-80zm184.438 257.689c-2.773 1.856-4.438 4.974-4.438 8.311v31.16h-80v-31.16c0-3.337-1.665-6.455-4.438-8.311-22.268-14.9-35.562-39.771-35.562-66.529v-30c0-16.163 13.051-29.978 30-30.01h48.286c-4.127 11.651-15.249 20.01-28.286 20.01h-20c-5.522 0-10 4.477-10 10s4.478 10 10 10c27.57 0 50 22.43 50 50 0 5.523 4.478 10 10 10s10-4.477 10-10c0-22.554-10.733-42.638-27.347-55.448 4.415-2.254 8.451-5.143 11.99-8.549 5.322 8.402 14.696 13.997 25.357 13.997 7.678 0 14.688-2.902 20-7.663 5.312 4.761 12.322 7.663 20 7.663 3.506 0 6.87-.61 10-1.72v21.72c0 26.758-13.294 51.629-35.562 66.529z"/><circle cx="46" cy="336" r="10"/></g></g></svg>
